<mxfile host="app.diagrams.net" modified="2024-02-29T18:16:50.026Z" agent="Mozilla/5.0 (X11; Linux x86_64) AppleWebKit/537.36 (KHTML, like Gecko) Chrome/121.0.0.0 Safari/537.36" etag="6kZ_eHw_hZ9LOpGuSGND" version="24.0.0" type="device">
  <diagram id="PVtQG_oPgHKIZc0Fs0rx" name="Page-1">
    <mxGraphModel dx="2342" dy="954" grid="0" gridSize="10" guides="1" tooltips="1" connect="1" arrows="1" fold="1" page="0" pageScale="1" pageWidth="850" pageHeight="1100" math="0" shadow="1">
      <root>
        <mxCell id="0" />
        <mxCell id="1" parent="0" />
        <mxCell id="yfg-i16KUQ9kF9AL-ZA1-1" style="edgeStyle=orthogonalEdgeStyle;rounded=0;orthogonalLoop=1;jettySize=auto;html=1;exitX=0;exitY=0.5;exitDx=0;exitDy=0;strokeWidth=1;startArrow=classic;startFill=1;endArrow=none;endFill=0;sketch=1;" parent="1" source="yfg-i16KUQ9kF9AL-ZA1-2" edge="1">
          <mxGeometry relative="1" as="geometry">
            <mxPoint x="110" y="180" as="targetPoint" />
          </mxGeometry>
        </mxCell>
        <mxCell id="yfg-i16KUQ9kF9AL-ZA1-2" value="Authenticated Proxy Service (also known as komodo-defi-proxy)Â " style="swimlane;rounded=0;shadow=0;sketch=0;glass=0;swimlaneLine=1;labelBackgroundColor=none;fixDash=0;portConstraintRotation=0;fillColor=#fff2cc;strokeColor=#d6b656;gradientColor=none;swimlaneFillColor=none;" parent="1" vertex="1">
          <mxGeometry x="346" y="280" width="1105" height="520" as="geometry" />
        </mxCell>
        <mxCell id="yfg-i16KUQ9kF9AL-ZA1-3" value="" style="edgeStyle=orthogonalEdgeStyle;rounded=0;orthogonalLoop=1;jettySize=auto;html=1;startArrow=none;startFill=0;endArrow=none;endFill=0;strokeWidth=0;sketch=1;entryX=0.019;entryY=0.467;entryDx=0;entryDy=0;entryPerimeter=0;" parent="yfg-i16KUQ9kF9AL-ZA1-2" source="yfg-i16KUQ9kF9AL-ZA1-4" target="yfg-i16KUQ9kF9AL-ZA1-5" edge="1">
          <mxGeometry relative="1" as="geometry">
            <Array as="points" />
          </mxGeometry>
        </mxCell>
        <mxCell id="yfg-i16KUQ9kF9AL-ZA1-4" value="API GATEWAY" style="rounded=0;whiteSpace=wrap;html=1;shadow=0;glass=0;sketch=1;strokeWidth=1;rotation=90;fillColor=#fff2cc;strokeColor=#d6b656;" parent="yfg-i16KUQ9kF9AL-ZA1-2" vertex="1">
          <mxGeometry x="-121" y="240" width="350" height="40" as="geometry" />
        </mxCell>
        <mxCell id="yfg-i16KUQ9kF9AL-ZA1-5" value="&lt;span style=&quot;background-color: rgb(31, 31, 31);&quot;&gt;&lt;font style=&quot;font-size: 16px;&quot; color=&quot;#f2f2f2&quot;&gt;&amp;nbsp; &amp;nbsp; Middleware&amp;nbsp; &amp;nbsp;&amp;nbsp;&lt;/font&gt;&lt;/span&gt;" style="verticalLabelPosition=bottom;verticalAlign=top;html=1;shape=mxgraph.basic.patternFillRect;fillStyle=diagGrid;step=5;fillStrokeWidth=0.2;fillStrokeColor=#dddddd;rounded=1;shadow=0;glass=0;sketch=1;strokeWidth=1;fillColor=#f5f5f5;fontColor=#333333;strokeColor=#666666;" parent="yfg-i16KUQ9kF9AL-ZA1-2" vertex="1">
          <mxGeometry x="100" y="120" width="530" height="300" as="geometry" />
        </mxCell>
        <mxCell id="yfg-i16KUQ9kF9AL-ZA1-6" value="Status Checker" style="shape=parallelogram;perimeter=parallelogramPerimeter;whiteSpace=wrap;html=1;fixedSize=1;rounded=1;shadow=0;glass=0;sketch=0;strokeWidth=1;fillColor=#dae8fc;strokeColor=#6c8ebf;" parent="yfg-i16KUQ9kF9AL-ZA1-2" vertex="1">
          <mxGeometry x="140" y="150" width="120" height="60" as="geometry" />
        </mxCell>
        <mxCell id="yfg-i16KUQ9kF9AL-ZA1-7" value="Rate Limiter" style="shape=parallelogram;perimeter=parallelogramPerimeter;whiteSpace=wrap;html=1;fixedSize=1;rounded=1;shadow=0;glass=0;sketch=0;strokeWidth=1;fillColor=#dae8fc;strokeColor=#6c8ebf;" parent="yfg-i16KUQ9kF9AL-ZA1-2" vertex="1">
          <mxGeometry x="300" y="240" width="120" height="60" as="geometry" />
        </mxCell>
        <mxCell id="yfg-i16KUQ9kF9AL-ZA1-8" value="Proof of Funding &amp;amp; Trading" style="shape=parallelogram;perimeter=parallelogramPerimeter;whiteSpace=wrap;html=1;fixedSize=1;rounded=1;shadow=0;glass=0;sketch=0;strokeWidth=1;fillColor=#dae8fc;strokeColor=#6c8ebf;" parent="yfg-i16KUQ9kF9AL-ZA1-2" vertex="1">
          <mxGeometry x="470" y="320" width="140" height="80" as="geometry" />
        </mxCell>
        <mxCell id="yfg-i16KUQ9kF9AL-ZA1-9" value="" style="endArrow=none;html=1;rounded=0;entryX=0.186;entryY=0.312;entryDx=0;entryDy=0;entryPerimeter=0;exitX=0.186;exitY=0.535;exitDx=0;exitDy=0;exitPerimeter=0;sketch=1;" parent="yfg-i16KUQ9kF9AL-ZA1-2" source="yfg-i16KUQ9kF9AL-ZA1-5" target="yfg-i16KUQ9kF9AL-ZA1-5" edge="1">
          <mxGeometry width="50" height="50" relative="1" as="geometry">
            <mxPoint x="180" y="280" as="sourcePoint" />
            <mxPoint x="230" y="230" as="targetPoint" />
          </mxGeometry>
        </mxCell>
        <mxCell id="yfg-i16KUQ9kF9AL-ZA1-10" value="" style="endArrow=none;html=1;rounded=0;strokeWidth=1;entryX=0.578;entryY=1.025;entryDx=0;entryDy=0;entryPerimeter=0;sketch=1;" parent="yfg-i16KUQ9kF9AL-ZA1-2" target="yfg-i16KUQ9kF9AL-ZA1-7" edge="1">
          <mxGeometry width="50" height="50" relative="1" as="geometry">
            <mxPoint x="369" y="370" as="sourcePoint" />
            <mxPoint x="230" y="230" as="targetPoint" />
          </mxGeometry>
        </mxCell>
        <mxCell id="yfg-i16KUQ9kF9AL-ZA1-11" value="" style="endArrow=classic;html=1;rounded=0;strokeWidth=1;exitX=0.506;exitY=0.821;exitDx=0;exitDy=0;exitPerimeter=0;sketch=1;entryX=0.038;entryY=0.59;entryDx=0;entryDy=0;entryPerimeter=0;" parent="yfg-i16KUQ9kF9AL-ZA1-2" source="yfg-i16KUQ9kF9AL-ZA1-5" target="yfg-i16KUQ9kF9AL-ZA1-8" edge="1">
          <mxGeometry width="50" height="50" relative="1" as="geometry">
            <mxPoint x="180" y="280" as="sourcePoint" />
            <mxPoint x="470" y="366" as="targetPoint" />
          </mxGeometry>
        </mxCell>
        <mxCell id="yfg-i16KUQ9kF9AL-ZA1-12" value="ROUTER" style="ellipse;whiteSpace=wrap;html=1;rounded=1;shadow=0;glass=0;sketch=1;strokeWidth=1;fillColor=#e1d5e7;strokeColor=#9673a6;" parent="yfg-i16KUQ9kF9AL-ZA1-2" vertex="1">
          <mxGeometry x="982" y="175" width="100" height="190" as="geometry" />
        </mxCell>
        <mxCell id="yfg-i16KUQ9kF9AL-ZA1-13" style="edgeStyle=orthogonalEdgeStyle;rounded=0;orthogonalLoop=1;jettySize=auto;html=1;exitX=1;exitY=0.6;exitDx=0;exitDy=0;exitPerimeter=0;entryX=0.5;entryY=1;entryDx=0;entryDy=0;sketch=1;" parent="yfg-i16KUQ9kF9AL-ZA1-2" source="yfg-i16KUQ9kF9AL-ZA1-15" target="W-w8zD5yYaKad_kiGe_T-2" edge="1">
          <mxGeometry relative="1" as="geometry" />
        </mxCell>
        <mxCell id="yfg-i16KUQ9kF9AL-ZA1-14" style="edgeStyle=orthogonalEdgeStyle;rounded=0;orthogonalLoop=1;jettySize=auto;html=1;exitX=0;exitY=0.6;exitDx=0;exitDy=0;exitPerimeter=0;entryX=0.998;entryY=0.537;entryDx=0;entryDy=0;entryPerimeter=0;endArrow=none;endFill=0;startArrow=classic;startFill=1;sketch=1;" parent="yfg-i16KUQ9kF9AL-ZA1-2" source="yfg-i16KUQ9kF9AL-ZA1-15" target="yfg-i16KUQ9kF9AL-ZA1-5" edge="1">
          <mxGeometry relative="1" as="geometry" />
        </mxCell>
        <mxCell id="yfg-i16KUQ9kF9AL-ZA1-15" value="&lt;span style=&quot;&quot;&gt;Generate secure JWT or use existing one &amp;amp; add it into HTTP Header&lt;/span&gt;" style="html=1;outlineConnect=0;whiteSpace=wrap;fillColor=#AFFFAF;shape=mxgraph.archimate3.function;sketch=1;" parent="yfg-i16KUQ9kF9AL-ZA1-2" vertex="1">
          <mxGeometry x="675" y="216" width="118" height="108" as="geometry" />
        </mxCell>
        <mxCell id="W-w8zD5yYaKad_kiGe_T-2" value="Drop hop headers" style="shape=parallelogram;perimeter=parallelogramPerimeter;whiteSpace=wrap;html=1;fixedSize=1;rounded=0;shadow=1;glass=0;sketch=1;strokeWidth=1;fillColor=#d80073;strokeColor=#A50040;curveFitting=1;jiggle=2;textShadow=1;fontStyle=0;fontColor=#000000;" vertex="1" parent="yfg-i16KUQ9kF9AL-ZA1-2">
          <mxGeometry x="825" y="86" width="144" height="73" as="geometry" />
        </mxCell>
        <mxCell id="W-w8zD5yYaKad_kiGe_T-4" style="edgeStyle=orthogonalEdgeStyle;rounded=0;orthogonalLoop=1;jettySize=auto;html=1;exitX=1;exitY=0.5;exitDx=0;exitDy=0;entryX=0.5;entryY=0;entryDx=0;entryDy=0;sketch=1;" edge="1" parent="yfg-i16KUQ9kF9AL-ZA1-2" source="W-w8zD5yYaKad_kiGe_T-2" target="yfg-i16KUQ9kF9AL-ZA1-12">
          <mxGeometry relative="1" as="geometry">
            <mxPoint x="803" y="291" as="sourcePoint" />
            <mxPoint x="907" y="169" as="targetPoint" />
          </mxGeometry>
        </mxCell>
        <mxCell id="yfg-i16KUQ9kF9AL-ZA1-16" value="" style="endArrow=classic;html=1;rounded=0;strokeWidth=1;entryX=0.391;entryY=0.535;entryDx=0;entryDy=0;entryPerimeter=0;sketch=1;" parent="1" target="yfg-i16KUQ9kF9AL-ZA1-5" edge="1">
          <mxGeometry width="50" height="50" relative="1" as="geometry">
            <mxPoint x="530" y="561" as="sourcePoint" />
            <mxPoint x="560" y="510" as="targetPoint" />
          </mxGeometry>
        </mxCell>
        <mxCell id="yfg-i16KUQ9kF9AL-ZA1-17" style="edgeStyle=orthogonalEdgeStyle;rounded=0;orthogonalLoop=1;jettySize=auto;html=1;exitX=0;exitY=1;exitDx=0;exitDy=0;entryX=1;entryY=1;entryDx=0;entryDy=0;startArrow=none;startFill=0;endArrow=classic;endFill=1;strokeWidth=1;sketch=1;" parent="1" source="yfg-i16KUQ9kF9AL-ZA1-18" target="yfg-i16KUQ9kF9AL-ZA1-12" edge="1">
          <mxGeometry relative="1" as="geometry" />
        </mxCell>
        <mxCell id="yfg-i16KUQ9kF9AL-ZA1-18" value="Target Route" style="shape=process;whiteSpace=wrap;html=1;backgroundOutline=1;rounded=1;shadow=0;glass=0;sketch=1;strokeWidth=1;fillColor=#d5e8d4;strokeColor=#82b366;" parent="1" vertex="1">
          <mxGeometry x="1594" y="505" width="230" height="90" as="geometry" />
        </mxCell>
        <mxCell id="yfg-i16KUQ9kF9AL-ZA1-19" style="edgeStyle=orthogonalEdgeStyle;rounded=0;orthogonalLoop=1;jettySize=auto;html=1;strokeWidth=1;sketch=1;" parent="1" source="yfg-i16KUQ9kF9AL-ZA1-12" edge="1" target="yfg-i16KUQ9kF9AL-ZA1-18">
          <mxGeometry relative="1" as="geometry">
            <mxPoint x="1350" y="550" as="targetPoint" />
          </mxGeometry>
        </mxCell>
        <mxCell id="yfg-i16KUQ9kF9AL-ZA1-20" value="&lt;font color=&quot;#f2f2f2&quot; style=&quot;background-color: rgb(38, 38, 38);&quot;&gt;&amp;nbsp; &amp;nbsp;REDIS&amp;nbsp; &amp;nbsp;&lt;/font&gt;" style="shape=cylinder3;whiteSpace=wrap;html=1;boundedLbl=1;backgroundOutline=1;size=15;rounded=1;shadow=0;glass=0;sketch=1;strokeWidth=1;fillColor=#a0522d;strokeColor=#6D1F00;fontColor=#ffffff;labelBackgroundColor=none;" parent="1" vertex="1">
          <mxGeometry x="360" y="100" width="90" height="130" as="geometry" />
        </mxCell>
        <mxCell id="yfg-i16KUQ9kF9AL-ZA1-21" style="edgeStyle=orthogonalEdgeStyle;rounded=0;orthogonalLoop=1;jettySize=auto;html=1;exitX=0.5;exitY=0;exitDx=0;exitDy=0;strokeWidth=1;sketch=1;" parent="1" source="yfg-i16KUQ9kF9AL-ZA1-7" edge="1">
          <mxGeometry relative="1" as="geometry">
            <mxPoint x="450" y="170" as="targetPoint" />
            <Array as="points">
              <mxPoint x="690" y="170" />
              <mxPoint x="450" y="170" />
            </Array>
          </mxGeometry>
        </mxCell>
        <mxCell id="yfg-i16KUQ9kF9AL-ZA1-22" style="edgeStyle=orthogonalEdgeStyle;rounded=0;orthogonalLoop=1;jettySize=auto;html=1;exitX=0.5;exitY=0;exitDx=0;exitDy=0;entryX=1;entryY=0;entryDx=0;entryDy=90;entryPerimeter=0;strokeWidth=1;sketch=1;" parent="1" source="yfg-i16KUQ9kF9AL-ZA1-6" target="yfg-i16KUQ9kF9AL-ZA1-20" edge="1">
          <mxGeometry relative="1" as="geometry" />
        </mxCell>
        <mxCell id="yfg-i16KUQ9kF9AL-ZA1-23" style="edgeStyle=orthogonalEdgeStyle;rounded=0;orthogonalLoop=1;jettySize=auto;html=1;exitX=0.5;exitY=0;exitDx=0;exitDy=0;entryX=1.011;entryY=0.814;entryDx=0;entryDy=0;entryPerimeter=0;strokeWidth=1;sketch=1;" parent="1" source="yfg-i16KUQ9kF9AL-ZA1-8" target="yfg-i16KUQ9kF9AL-ZA1-20" edge="1">
          <mxGeometry relative="1" as="geometry" />
        </mxCell>
        <mxCell id="yfg-i16KUQ9kF9AL-ZA1-24" style="edgeStyle=orthogonalEdgeStyle;rounded=0;orthogonalLoop=1;jettySize=auto;html=1;exitX=0.5;exitY=1;exitDx=0;exitDy=0;strokeWidth=1;sketch=1;" parent="1" source="yfg-i16KUQ9kF9AL-ZA1-12" edge="1">
          <mxGeometry relative="1" as="geometry">
            <mxPoint x="90" y="180" as="targetPoint" />
            <Array as="points">
              <mxPoint x="1070" y="770" />
              <mxPoint x="90" y="770" />
            </Array>
          </mxGeometry>
        </mxCell>
        <mxCell id="yfg-i16KUQ9kF9AL-ZA1-25" value="&amp;nbsp; &amp;nbsp;client (e.g., komodo-defi-framework)&amp;nbsp; &amp;nbsp;" style="outlineConnect=0;dashed=0;verticalLabelPosition=bottom;verticalAlign=top;align=center;html=1;shape=mxgraph.aws3.management_console;fillColor=#D2D3D3;gradientColor=none;rounded=0;shadow=0;glass=0;labelBackgroundColor=#1F1F1F;sketch=0;fontSize=16;fontColor=#F2F2F2;strokeWidth=1;" parent="1" vertex="1">
          <mxGeometry x="52" y="49" width="107" height="98" as="geometry" />
        </mxCell>
        <mxCell id="yfg-i16KUQ9kF9AL-ZA1-26" style="edgeStyle=orthogonalEdgeStyle;rounded=0;orthogonalLoop=1;jettySize=auto;html=1;exitX=0.5;exitY=0;exitDx=0;exitDy=0;exitPerimeter=0;entryX=0.994;entryY=0.19;entryDx=0;entryDy=0;entryPerimeter=0;sketch=1;" parent="1" source="yfg-i16KUQ9kF9AL-ZA1-15" target="yfg-i16KUQ9kF9AL-ZA1-20" edge="1">
          <mxGeometry relative="1" as="geometry" />
        </mxCell>
      </root>
    </mxGraphModel>
  </diagram>
</mxfile>
